<svg width="2353" height="431" viewBox="0 0 2353 431" fill="none" xmlns="http://www.w3.org/2000/svg">
<path d="M751.403 164.99C751.403 219.873 727.987 251.156 681.153 258.84L755.245 418H692.953L619.959 260.761H496.747V418H440.492V24.4902H655.907C719.571 24.4902 751.403 56.4137 751.403 120.261V164.99ZM496.747 204.506H652.889C667.89 204.506 678.684 201.213 685.27 194.627C691.855 188.041 695.148 177.247 695.148 162.246V123.005C695.148 108.004 691.855 97.21 685.27 90.624C678.684 84.0381 667.89 80.7451 652.889 80.7451H496.747V204.506ZM845.527 24.4902H1132.29V80.7451H901.782V193.255H1098.54V249.51H901.782V361.745H1132.29V418H845.527V24.4902ZM1272.79 24.4902V418H1216.54V24.4902H1272.79ZM1577.12 418L1430.3 129.591V418H1374.05V24.4902H1435.52L1585.35 320.857L1735.45 24.4902H1796.65V418H1740.67V129.591L1593.85 418H1577.12ZM1898.18 80.7451C1898.18 73.0615 1899.64 65.8353 1902.57 59.0664C1905.5 52.1146 1909.52 46.1689 1914.64 41.2295C1919.77 36.1071 1925.71 32.0824 1932.48 29.1553C1939.43 26.0452 1946.75 24.4902 1954.43 24.4902H2167.93C2175.61 24.4902 2182.84 26.0452 2189.61 29.1553C2196.56 32.0824 2202.6 36.1071 2207.72 41.2295C2212.84 46.1689 2216.87 52.1146 2219.79 59.0664C2222.72 65.8353 2224.18 73.0615 2224.18 80.7451V131.512H2167.93V80.7451H1954.43V361.745H2167.93V266.249H2061.18V209.994H2224.18V361.745C2224.18 369.429 2222.72 376.746 2219.79 383.698C2216.87 390.467 2212.84 396.413 2207.72 401.535C2202.6 406.658 2196.56 410.682 2189.61 413.609C2182.84 416.536 2175.61 418 2167.93 418H1954.43C1946.75 418 1939.43 416.536 1932.48 413.609C1925.71 410.682 1919.77 406.658 1914.64 401.535C1909.52 396.413 1905.5 390.467 1902.57 383.698C1899.64 376.746 1898.18 369.429 1898.18 361.745V80.7451Z" fill="white"/>
<line y1="-15" x2="101.188" y2="-15" transform="matrix(0.715312 0.698805 -0.715312 0.698805 3.0708 53)" stroke="white" stroke-width="30"/>
<line y1="-15" x2="101.188" y2="-15" transform="matrix(-0.715312 0.698805 -0.715312 -0.698805 369.231 28)" stroke="white" stroke-width="30"/>
<line y1="-15" x2="101.188" y2="-15" transform="matrix(-0.715312 0.698805 -0.715312 -0.698805 75.4519 322)" stroke="white" stroke-width="30"/>
<line y1="-15" x2="101.188" y2="-15" transform="matrix(0.715312 0.698805 -0.715312 0.698805 296.85 346)" stroke="white" stroke-width="30"/>
<rect x="56.063" y="171" width="275.827" height="129" fill="#44B042" stroke="white" stroke-width="20"/>
<path d="M63.9763 288.5L145.866 208L211.378 272L254.37 230L322.441 293" stroke="white" stroke-width="20"/>
<line x1="375.315" y1="28" x2="375.315" y2="134" stroke="white" stroke-width="30"/>
<line x1="15" y1="28" x2="15" y2="134" stroke="white" stroke-width="30"/>
<line x1="15" y1="312" x2="15" y2="418" stroke="white" stroke-width="30"/>
<line x1="375.315" y1="312" x2="375.315" y2="418" stroke="white" stroke-width="30"/>
<path d="M111.063 43L2.5591 43M390 43L281.496 43" stroke="white" stroke-width="30"/>
<path d="M108.504 403L0.000214577 403" stroke="white" stroke-width="30"/>
<path d="M390 403L281.496 403" stroke="white" stroke-width="30"/>
</svg>
